<svg xmlns="http://www.w3.org/2000/svg" viewBox="0 0 300 157.89"><!-- Country Flags - https://www.countryflags.com License - https://www.countryflags.com/license-agreement. Changes were made to this file by Nicolas Flamel --><defs><style>.cls-1{fill:#fff}.cls-2{fill:#b22234}</style></defs><path class="cls-1" d="M0 0h300v157.89H0z"/><path class="cls-2" d="M0 0h300v12.15H0zM0 24.29h300v12.15H0zM0 48.58h300v12.15H0zM0 72.87h300v12.15H0zM0 97.17h300v12.15H0zM0 121.46h300v12.15H0zM0 145.75h300v12.15H0z"/><path fill="#3c3b6e" d="M0 0h120v85.02H0z"/><path class="cls-1" d="M5.64 6.9L8.5 8.98l-1.09 3.36 2.85-2.08 2.86 2.08-1.09-3.36 2.86-2.08h-3.53l-1.1-3.36L9.17 6.9H5.64zM25.53 6.9l2.86 2.08-1.09 3.36 2.86-2.08 2.86 2.08-1.1-3.36 2.86-2.08h-3.53l-1.09-3.36-1.09 3.36h-3.54zM45.43 6.9l2.86 2.08-1.1 3.36 2.86-2.08 2.86 2.08-1.09-3.36 2.86-2.08h-3.54l-1.09-3.36-1.09 3.36h-3.53zM65.32 6.9l2.86 2.08-1.09 3.36 2.86-2.08 2.86 2.08-1.1-3.36 2.86-2.08h-3.53l-1.09-3.36-1.09 3.36h-3.54zM85.22 6.9l2.86 2.08-1.1 3.36 2.86-2.08 2.86 2.08-1.09-3.36 2.86-2.08h-3.54l-1.09-3.36-1.09 3.36h-3.53zM105.11 6.9l2.86 2.08-1.09 3.36 2.86-2.08 2.85 2.08-1.09-3.36 2.86-2.08h-3.53l-1.09-3.36-1.1 3.36h-3.53zM15.59 15.43l2.85 2.07-1.09 3.37 2.86-2.08 2.86 2.08-1.09-3.37 2.86-2.07H21.3l-1.09-3.36-1.09 3.36h-3.53zM35.48 15.43l2.86 2.07-1.09 3.37 2.85-2.08 2.86 2.08-1.09-3.37 2.86-2.07H41.2l-1.1-3.36-1.09 3.36h-3.53zM55.38 15.43l2.85 2.07-1.09 3.37L60 18.79l2.86 2.08-1.09-3.37 2.86-2.07h-3.54L60 12.07l-1.09 3.36h-3.53zM75.27 15.43l2.86 2.07-1.09 3.37 2.85-2.08 2.86 2.08-1.09-3.37 2.86-2.07h-3.53l-1.1-3.36-1.09 3.36h-3.53zM95.16 15.43l2.86 2.07-1.09 3.37 2.86-2.08 2.86 2.08-1.09-3.37 2.85-2.07h-3.53l-1.09-3.36-1.09 3.36h-3.54zM5.64 23.95l2.86 2.08-1.09 3.36 2.85-2.07 2.86 2.07-1.09-3.36 2.86-2.08h-3.53l-1.1-3.36-1.09 3.36H5.64zM25.53 23.95l2.86 2.08-1.09 3.36 2.86-2.07 2.86 2.07-1.1-3.36 2.86-2.08h-3.53l-1.09-3.36-1.09 3.36h-3.54zM45.43 23.95l2.86 2.08-1.1 3.36 2.86-2.07 2.86 2.07-1.09-3.36 2.86-2.08h-3.54l-1.09-3.36-1.09 3.36h-3.53zM65.32 23.95l2.86 2.08-1.09 3.36 2.86-2.07 2.86 2.07-1.1-3.36 2.86-2.08h-3.53l-1.09-3.36-1.09 3.36h-3.54zM85.22 23.95l2.86 2.08-1.1 3.36 2.86-2.07 2.86 2.07-1.09-3.36 2.86-2.08h-3.54l-1.09-3.36-1.09 3.36h-3.53zM105.11 23.95l2.86 2.08-1.09 3.36 2.86-2.07 2.85 2.07-1.09-3.36 2.86-2.08h-3.53l-1.09-3.36-1.1 3.36h-3.53zM15.83 32.51l2.86 2.08-1.09 3.36 2.86-2.08 2.85 2.08-1.09-3.36 2.86-2.08h-3.53l-1.09-3.36-1.1 3.36h-3.53zM35.73 32.51l2.85 2.08-1.09 3.36 2.86-2.08 2.86 2.08-1.09-3.36 2.86-2.08h-3.54l-1.09-3.36-1.09 3.36h-3.53zM55.62 32.51l2.86 2.08-1.09 3.36 2.85-2.08 2.86 2.08-1.09-3.36 2.86-2.08h-3.53l-1.1-3.36-1.09 3.36h-3.53zM75.52 32.51l2.85 2.08-1.09 3.36 2.86-2.08L83 37.95l-1.09-3.36 2.86-2.08h-3.54l-1.09-3.36-1.09 3.36h-3.53zM95.41 32.51l2.86 2.08-1.09 3.36 2.85-2.08 2.86 2.08-1.09-3.36 2.86-2.08h-3.53l-1.1-3.36-1.09 3.36h-3.53zM5.94 40.96l2.86 2.08-1.09 3.36 2.85-2.07 2.86 2.07-1.09-3.36 2.86-2.08h-3.53l-1.1-3.36-1.09 3.36H5.94zM25.84 40.96l2.85 2.08-1.09 3.36 2.86-2.07 2.86 2.07-1.09-3.36 2.86-2.08h-3.54l-1.09-3.36-1.09 3.36h-3.53zM45.73 40.96l2.86 2.08-1.09 3.36 2.85-2.07 2.86 2.07-1.09-3.36 2.86-2.08h-3.53l-1.1-3.36-1.09 3.36h-3.53zM65.62 40.96l2.86 2.08-1.09 3.36 2.86-2.07 2.86 2.07-1.09-3.36 2.85-2.08h-3.53l-1.09-3.36-1.09 3.36h-3.54zM85.52 40.96l2.86 2.08-1.1 3.36 2.86-2.07L93 46.4l-1.09-3.36 2.86-2.08h-3.53l-1.1-3.36-1.09 3.36h-3.53zM105.41 40.96l2.86 2.08-1.09 3.36 2.86-2.07 2.86 2.07-1.09-3.36 2.85-2.08h-3.53l-1.09-3.36-1.09 3.36h-3.54zM6.13 57.75l2.85 2.07-1.09 3.36 2.86-2.07 2.86 2.07-1.09-3.36 2.86-2.07h-3.54l-1.09-3.36-1.09 3.36H6.13zM26.02 57.75l2.86 2.07-1.09 3.36 2.86-2.07 2.86 2.07-1.1-3.36 2.86-2.07h-3.53l-1.09-3.36-1.1 3.36h-3.53zM45.92 57.75l2.85 2.07-1.09 3.36 2.86-2.07 2.86 2.07-1.09-3.36 2.86-2.07h-3.54l-1.09-3.36-1.09 3.36h-3.53zM65.81 57.75l2.86 2.07-1.09 3.36 2.86-2.07 2.85 2.07-1.09-3.36 2.86-2.07h-3.53l-1.09-3.36-1.1 3.36h-3.53zM85.7 57.75l2.86 2.07-1.09 3.36 2.86-2.07 2.86 2.07-1.09-3.36 2.85-2.07h-3.53l-1.09-3.36-1.09 3.36H85.7zM105.6 57.75l2.86 2.07-1.09 3.36 2.85-2.07 2.86 2.07-1.09-3.36 2.86-2.07h-3.53l-1.1-3.36-1.09 3.36h-3.53zM5.88 74.73l2.86 2.07-1.09 3.36 2.86-2.07 2.86 2.07-1.09-3.36 2.85-2.07H11.6l-1.09-3.36-1.09 3.36H5.88zM25.78 74.73l2.86 2.07-1.09 3.36 2.85-2.07 2.86 2.07-1.09-3.36 2.86-2.07H31.5l-1.1-3.36-1.09 3.36h-3.53zM45.67 74.73l2.86 2.07-1.09 3.36 2.86-2.07 2.86 2.07-1.1-3.36 2.86-2.07h-3.53l-1.09-3.36-1.09 3.36h-3.54zM65.57 74.73l2.86 2.07-1.1 3.36 2.86-2.07 2.86 2.07-1.09-3.36 2.86-2.07h-3.54l-1.09-3.36-1.09 3.36h-3.53zM85.46 74.73l2.86 2.07-1.09 3.36 2.86-2.07 2.86 2.07-1.1-3.36 2.86-2.07h-3.53l-1.09-3.36L89 74.73h-3.54zM105.36 74.73l2.86 2.07-1.1 3.36 2.86-2.07 2.86 2.07-1.09-3.36 2.86-2.07h-3.54l-1.09-3.36-1.09 3.36h-3.53zM15.89 49.27l2.86 2.08-1.09 3.36 2.86-2.08 2.85 2.08-1.09-3.36 2.86-2.08h-3.53l-1.09-3.36-1.1 3.36h-3.53zM35.78 49.27l2.86 2.08-1.09 3.36 2.86-2.08 2.86 2.08-1.09-3.36 2.85-2.08H41.5l-1.09-3.36-1.09 3.36h-3.54zM55.68 49.27l2.86 2.08-1.09 3.36 2.85-2.08 2.86 2.08-1.09-3.36 2.86-2.08H61.4l-1.1-3.36-1.09 3.36h-3.53zM75.57 49.27l2.86 2.08-1.09 3.36 2.86-2.08 2.86 2.08-1.09-3.36 2.85-2.08h-3.53l-1.09-3.36-1.09 3.36h-3.54zM95.47 49.27l2.86 2.08-1.1 3.36 2.86-2.08 2.86 2.08-1.09-3.36 2.86-2.08h-3.53l-1.1-3.36L99 49.27h-3.53zM15.83 66.22l2.86 2.08-1.09 3.36 2.86-2.07 2.85 2.07-1.09-3.36 2.86-2.08h-3.53l-1.09-3.35-1.1 3.35h-3.53zM35.73 66.22l2.85 2.08-1.09 3.36 2.86-2.07 2.86 2.07-1.09-3.36 2.86-2.08h-3.54l-1.09-3.35-1.09 3.35h-3.53zM55.62 66.22l2.86 2.08-1.09 3.36 2.86-2.07 2.85 2.07-1.09-3.36 2.86-2.08h-3.53l-1.09-3.35-1.1 3.35h-3.53zM75.52 66.22l2.85 2.08-1.09 3.36 2.86-2.07L83 71.66l-1.09-3.36 2.86-2.08h-3.54l-1.09-3.35-1.09 3.35h-3.53zM95.41 66.22l2.86 2.08-1.09 3.36 2.85-2.07 2.86 2.07-1.09-3.36 2.86-2.08h-3.53l-1.1-3.35-1.09 3.35h-3.53z"/></svg>
