<svg xmlns="http://www.w3.org/2000/svg" viewBox="312 717.552 300 157.895"><!-- Country Flags - https://www.countryflags.com License - https://www.countryflags.com/license-agreement. Changes were made to this file by Nicolas Flamel --><path fill="#fff" d="M312 717.552h300v157.895H312z"/><path fill="#b22234" d="M312 717.552h300v12.146H312zm0 24.292h300v12.146H312zm0 24.291h300v12.146H312zm0 24.292h300v12.146H312zm0 24.291h300v12.146H312zm0 24.292h300v12.146H312zm0 24.291h300v12.146H312z"/><path fill="#3c3b6e" d="M312 717.552h120v85.02H312z"/><path fill="#fff" d="m317.638 724.454 2.859 2.077-1.092 3.361 2.858-2.077 2.859 2.077-1.092-3.361 2.858-2.077h-3.533l-1.092-3.36-1.092 3.36zm19.895 0 2.858 2.077-1.092 3.361 2.859-2.077 2.859 2.077-1.092-3.361 2.858-2.077h-3.533l-1.092-3.36-1.092 3.36zm19.895 0 2.858 2.077-1.092 3.361 2.859-2.077 2.858 2.077-1.092-3.361 2.859-2.077h-3.533l-1.092-3.36-1.092 3.36zm19.895 0 2.858 2.077-1.092 3.361 2.859-2.077 2.858 2.077-1.092-3.361 2.859-2.077h-3.534l-1.091-3.36-1.092 3.36zm19.894 0 2.859 2.077-1.092 3.361 2.858-2.077 2.859 2.077-1.092-3.361 2.858-2.077h-3.533l-1.092-3.36-1.092 3.36zm19.895 0 2.858 2.077-1.092 3.361 2.859-2.077 2.858 2.077-1.092-3.361 2.859-2.077h-3.533l-1.092-3.36-1.092 3.36zm-89.527 8.527 2.859 2.077-1.092 3.36 2.859-2.077 2.858 2.077-1.092-3.36 2.859-2.077h-3.534l-1.091-3.361-1.092 3.361zm19.895 0 2.859 2.077-1.092 3.36 2.858-2.077 2.859 2.077-1.092-3.36 2.858-2.077h-3.533l-1.092-3.361-1.092 3.361zm19.895 0 2.859 2.077-1.092 3.36 2.858-2.077 2.859 2.077-1.092-3.36 2.858-2.077h-3.533L372 729.62l-1.092 3.361zm19.895 0 2.858 2.077-1.092 3.36 2.859-2.077 2.858 2.077-1.092-3.36 2.859-2.077h-3.533l-1.092-3.361-1.092 3.361zm19.894 0 2.859 2.077-1.092 3.36 2.858-2.077 2.859 2.077-1.092-3.36 2.858-2.077h-3.533l-1.092-3.361-1.091 3.361zm-89.526 8.526 2.859 2.077-1.092 3.361 2.858-2.077 2.859 2.077-1.092-3.361 2.858-2.077h-3.533l-1.092-3.36-1.092 3.36zm19.895 0 2.858 2.077-1.092 3.361 2.859-2.077 2.859 2.077-1.092-3.361 2.858-2.077h-3.533l-1.092-3.36-1.092 3.36zm19.895 0 2.858 2.077-1.092 3.361 2.859-2.077 2.858 2.077-1.092-3.361 2.859-2.077h-3.533l-1.092-3.36-1.092 3.36zm19.895 0 2.858 2.077-1.092 3.361 2.859-2.077 2.858 2.077-1.092-3.361 2.859-2.077h-3.534l-1.091-3.36-1.092 3.36zm19.894 0 2.859 2.077-1.092 3.361 2.858-2.077 2.859 2.077-1.092-3.361 2.858-2.077h-3.533l-1.092-3.36-1.092 3.36zm19.895 0 2.858 2.077-1.092 3.361 2.859-2.077 2.858 2.077-1.092-3.361 2.859-2.077h-3.533l-1.092-3.36-1.092 3.36zm-89.281 8.555 2.858 2.077-1.091 3.36 2.858-2.077 2.859 2.077-1.092-3.361 2.858-2.076h-3.533l-1.092-3.361-1.092 3.361zm19.895 0 2.858 2.077-1.092 3.36 2.859-2.077 2.858 2.077-1.092-3.361 2.859-2.076h-3.533l-1.092-3.361-1.092 3.361zm19.895 0 2.858 2.077-1.092 3.36 2.859-2.077 2.858 2.077-1.092-3.361 2.859-2.076h-3.534l-1.091-3.361-1.092 3.361zm19.894 0 2.859 2.077-1.092 3.36 2.858-2.077 2.859 2.077-1.092-3.361 2.858-2.076h-3.533l-1.092-3.361-1.092 3.361zm19.895 0 2.858 2.077-1.092 3.36 2.859-2.077 2.858 2.077-1.092-3.361 2.859-2.076h-3.533l-1.092-3.361-1.092 3.361zm-89.47 8.455 2.859 2.076-1.092 3.361 2.858-2.077 2.859 2.077-1.092-3.361 2.858-2.076h-3.533l-1.092-3.361-1.092 3.361zm19.895 0 2.858 2.076-1.092 3.361 2.859-2.077 2.858 2.077-1.091-3.361 2.858-2.076h-3.533l-1.092-3.361-1.092 3.361zm19.895 0 2.858 2.076-1.092 3.361 2.859-2.077 2.858 2.077-1.092-3.361 2.859-2.076h-3.533l-1.092-3.361-1.092 3.361zm19.894 0 2.859 2.076-1.092 3.361 2.858-2.077 2.859 2.077-1.092-3.361 2.859-2.076h-3.534l-1.092-3.361-1.091 3.361zm19.895 0 2.858 2.076-1.091 3.361 2.858-2.077 2.859 2.077-1.092-3.361 2.858-2.076h-3.533l-1.092-3.361-1.092 3.361zm19.895 0 2.858 2.076-1.092 3.361 2.859-2.077 2.858 2.077-1.092-3.361 2.859-2.076h-3.533l-1.092-3.361-1.092 3.361zm-99.287 16.782 2.858 2.077-1.092 3.361 2.859-2.077 2.858 2.077-1.092-3.361 2.859-2.077h-3.533l-1.092-3.36-1.092 3.36zm19.894 0 2.859 2.077-1.092 3.361 2.858-2.077 2.859 2.077-1.092-3.361 2.858-2.077h-3.533l-1.092-3.36-1.092 3.36zm19.895 0 2.858 2.077-1.091 3.361 2.858-2.077 2.859 2.077-1.092-3.361 2.858-2.077h-3.533l-1.092-3.36-1.092 3.36zm19.895 0 2.858 2.077-1.092 3.361 2.859-2.077 2.858 2.077-1.091-3.361 2.858-2.077h-3.533l-1.092-3.36-1.092 3.36zm19.894 0 2.859 2.077-1.092 3.361 2.858-2.077 2.859 2.077-1.092-3.361 2.859-2.077h-3.534l-1.092-3.36-1.091 3.36zm19.895 0 2.858 2.077-1.091 3.361 2.858-2.077 2.859 2.077-1.092-3.361 2.858-2.077h-3.533l-1.092-3.36-1.092 3.36zm-99.716 16.98 2.858 2.077-1.092 3.361 2.859-2.077 2.858 2.077-1.092-3.361 2.859-2.077H323.6l-1.091-3.36-1.092 3.36zm19.894 0 2.859 2.077-1.092 3.361 2.858-2.077 2.859 2.077-1.092-3.361 2.858-2.077h-3.533l-1.092-3.36-1.092 3.36zm19.895 0 2.858 2.077-1.091 3.361 2.858-2.077 2.859 2.077-1.092-3.361 2.858-2.077h-3.533l-1.092-3.36-1.092 3.36zm19.895 0 2.858 2.077-1.092 3.361 2.859-2.077 2.858 2.077-1.091-3.361 2.858-2.077h-3.533l-1.092-3.36-1.092 3.36zm19.894 0 2.859 2.077-1.092 3.361 2.858-2.077 2.859 2.077-1.092-3.361 2.859-2.077h-3.534l-1.092-3.36-1.091 3.36zm19.895 0 2.858 2.077-1.091 3.361 2.858-2.077 2.859 2.077-1.092-3.361 2.858-2.077h-3.533l-1.092-3.36-1.092 3.36zm-89.467-25.455 2.858 2.077-1.091 3.36 2.858-2.077 2.859 2.077-1.092-3.36 2.858-2.077h-3.533l-1.092-3.361-1.092 3.361zm19.895 0 2.858 2.077-1.092 3.36 2.859-2.077 2.858 2.077-1.091-3.36 2.858-2.077h-3.533l-1.092-3.361-1.092 3.361zm19.895 0 2.858 2.077-1.092 3.36 2.859-2.077 2.858 2.077-1.092-3.36 2.859-2.077h-3.533l-1.092-3.361-1.092 3.361zm19.894 0 2.859 2.077-1.092 3.36 2.858-2.077 2.859 2.077-1.092-3.36 2.858-2.077h-3.533l-1.092-3.361-1.092 3.361zm19.895 0 2.858 2.077-1.092 3.36 2.859-2.077 2.858 2.077-1.091-3.36 2.858-2.077h-3.533l-1.092-3.361-1.092 3.361zm-79.638 16.953 2.859 2.077-1.092 3.361 2.858-2.077 2.859 2.077-1.092-3.361 2.858-2.077h-3.533l-1.092-3.36-1.092 3.36zm19.895 0 2.858 2.077-1.092 3.361 2.859-2.077 2.859 2.077-1.092-3.361 2.858-2.077h-3.533l-1.092-3.36-1.092 3.36zm19.895 0 2.858 2.077-1.092 3.361 2.859-2.077 2.858 2.077-1.092-3.361 2.859-2.077h-3.533l-1.092-3.36-1.092 3.36zm19.894 0 2.859 2.077-1.092 3.361 2.858-2.077 2.859 2.077-1.092-3.361 2.858-2.077h-3.533l-1.092-3.36-1.092 3.36zm19.895 0 2.858 2.077-1.092 3.361 2.859-2.077 2.858 2.077-1.091-3.361 2.858-2.077h-3.533l-1.092-3.36-1.092 3.36z"/></svg>
