<svg xmlns="http://www.w3.org/2000/svg" viewBox="0 0 128 128"><defs><linearGradient id="a" x1="1" y1="64" x2="127" y2="64" gradientUnits="userSpaceOnUse"><stop offset="0" stop-color="#9e00e7"/><stop offset="1" stop-color="#3600c9"/></linearGradient></defs><path fill="none" d="M0 0h128v128H0z"/><circle cx="64" cy="64" r="63" fill="url(#a)"/><path d="M64.16 59.78a4.93 4.93 0 01-3.48-1.55s-11-11.14-14.53-14.62-7.56 0-7.56 0L22.08 60.22a5.31 5.31 0 000 7.56L38.59 84.4s4.09 3.48 7.56 0 14.53-14.63 14.53-14.63a4.93 4.93 0 013.48-1.55h-.31a5 5 0 013.49 1.55s11 11.15 14.52 14.63 7.56 0 7.56 0l16.51-16.62a5.34 5.34 0 000-7.56L89.42 43.61s-4.08-3.48-7.56 0-14.52 14.62-14.52 14.62a5 5 0 01-3.49 1.55" fill="#fff"/></svg>