<svg xmlns="http://www.w3.org/2000/svg" viewBox="0 0 402 205"><path fill="none" d="M0 0h402v205H0z"/><path d="M201.75 83.21a22.64 22.64 0 01-16-7.1s-50.53-50.95-66.44-66.9-34.58 0-34.58 0l-75.55 76A22.32 22.32 0 002 102.51a22.32 22.32 0 007.2 17.29l75.55 76s18.68 15.91 34.58 0 66.44-66.9 66.44-66.9a22.68 22.68 0 0116-7.1h-1.47a22.68 22.68 0 0116 7.1s50.53 51 66.44 66.9 34.58 0 34.58 0l75.55-76a22.34 22.34 0 007.13-17.29 22.34 22.34 0 00-7.15-17.29l-75.55-76s-18.68-15.9-34.58 0-66.44 66.9-66.44 66.9a22.64 22.64 0 01-16 7.1" fill="#fff"/></svg>