<svg xmlns="http://www.w3.org/2000/svg" viewBox="0 0 278 47"><path fill="#fff" d="M110.87 43.54V3h7.43s3.18-.23 3.54 4.24a14.43 14.43 0 0 1 10.43-4.77 10 10 0 0 1 9.64 6.89s3.09-6.85 12.91-6.85 14.41 6.9 14.41 13.81v27.22h-12V17s0-5.4-5.41-5.4-5.63 5.28-5.64 5.93 0 26 0 26h-12l-.08-26.91s.3-4.08-3.55-5a6 6 0 0 0-2.82.11 9.53 9.53 0 0 0-4.73 2.54v29.27zm75.96-.18L174.36 3H184s2.81.06 3.27 2.12 5.66 26 5.66 26l7.43-26.09A3.22 3.22 0 0 1 203.54 3h5.39a3.3 3.3 0 0 1 3.34 2.34c1 2.64 7 25.78 7 25.78l5.86-25.8s.66-2.41 2.9-2.41h9.54L225 43.18h-9.5s-1.82.43-2.53-2-7.16-25.38-7.16-25.38l-7.07 25.56a2.5 2.5 0 0 1-2.57 2zm74.05-32.17c-9.61-.1-10.18 18-4.38 22.09a8.7 8.7 0 0 0 10.78-.34c3.25-2.68 5-.44 5-.44L276 37c-7.42 8.61-19.65 6.68-19.65 6.68s-14-1.35-15.53-18.29 10.16-22.52 19.52-23a21.12 21.12 0 0 1 15.31 5.92l-3.79 4.84s-1.39 1.52-4.07.07-3.79-1.99-6.91-2.03M42 20.64a4.56 4.56 0 0 1-3.2-1.42S28.72 9 25.54 5.82s-6.93 0-6.93 0L3.48 21A4.49 4.49 0 0 0 2 24.5 4.51 4.51 0 0 0 3.48 28l15.13 15.19s3.74 3.18 6.93 0 13.3-13.4 13.3-13.4A4.56 4.56 0 0 1 42 28.37h-.29a4.54 4.54 0 0 1 3.19 1.42S55.06 40 58.25 43.19s6.92 0 6.92 0L80.3 28a4.46 4.46 0 0 0 1.43-3.47A4.46 4.46 0 0 0 80.3 21L65.17 5.82s-3.74-3.18-6.92 0-13.31 13.4-13.31 13.4a4.54 4.54 0 0 1-3.19 1.42"/></svg>